<svg width="25" height="24" viewBox="0 0 25 24" fill="none" xmlns="http://www.w3.org/2000/svg">
<g clip-path="url(#clip0_878_28719)">
<path fill-rule="evenodd" clip-rule="evenodd" d="M22.625 12C22.625 6.40338 18.0959 1.875 12.5 1.875C6.90338 1.875 2.375 6.40411 2.375 12C2.375 17.5966 6.90411 22.125 12.5 22.125C18.0966 22.125 22.625 17.5959 22.625 12ZM17.8046 9.51819C18.1708 9.15216 18.1708 8.55853 17.8046 8.19232C17.4385 7.82629 16.8449 7.82629 16.4787 8.19232L10.8522 13.819L8.52112 11.4879C8.15509 11.1216 7.56146 11.1216 7.19543 11.4879C6.82922 11.8539 6.82922 12.4475 7.19543 12.8135L10.1894 15.8077C10.5556 16.1737 11.149 16.1737 11.5153 15.8077L17.8046 9.51819Z" fill="#61AD1F"/>
<path fill-rule="evenodd" clip-rule="evenodd" d="M12.5 24C19.1321 24 24.5 18.633 24.5 12C24.5 5.36792 19.133 0 12.5 0C5.86792 0 0.5 5.367 0.5 12C0.5 18.6321 5.867 24 12.5 24ZM12.5 1.875C18.0959 1.875 22.625 6.40338 22.625 12C22.625 17.5959 18.0966 22.125 12.5 22.125C6.90411 22.125 2.375 17.5966 2.375 12C2.375 6.40411 6.90338 1.875 12.5 1.875Z" fill="#61AD1F"/>
<path d="M17.8046 8.19232C18.1708 8.55853 18.1708 9.15216 17.8046 9.51819L11.5153 15.8077C11.149 16.1737 10.5556 16.1737 10.1894 15.8077L7.19543 12.8135C6.82922 12.4475 6.82922 11.8539 7.19543 11.4879C7.56146 11.1216 8.15509 11.1216 8.52112 11.4879L10.8522 13.819L16.4787 8.19232C16.8449 7.82629 17.4385 7.82629 17.8046 8.19232Z" fill="#61AD1F"/>
<path d="M18.1338 9.85039C18.5 9.48436 18.5 8.89073 18.1338 8.52452C17.7678 8.15849 17.1741 8.15849 16.8079 8.52452L11.1815 14.1512L8.85034 11.8201C8.48431 11.4538 7.89069 11.4538 7.52466 11.8201C7.15845 12.1861 7.15845 12.7797 7.52466 13.1457L10.5186 16.1399C10.8848 16.5059 11.4783 16.5059 11.8445 16.1399L18.1338 9.85039Z" fill="white"/>
</g>
<defs>
<clipPath id="clip0_878_28719">
<rect width="24" height="24" fill="white" transform="translate(0.5)"/>
</clipPath>
</defs>
</svg>
